<?xml version="1.0" encoding="utf-8"?>
<!-- Generator: Adobe Illustrator 21.0.0, SVG Export Plug-In . SVG Version: 6.00 Build 0)  -->
<svg version="1.1" xmlns="http://www.w3.org/2000/svg" xmlns:xlink="http://www.w3.org/1999/xlink" x="0px" y="0px"
	 viewBox="0 0 800.2 389.1" style="enable-background:new 0 0 800.2 389.1;" xml:space="preserve">
<style type="text/css">
	.st0{fill:#231815;}
</style>
<g id="圖層_1">
	<g>
		<g>
			<path class="st0" d="M54,150.6C102.8,126,156.9,92.9,164,33.3c-4,0-8,0-12,0c3.5,68.7,7.1,138.7-6.2,206.7
				c-3.2,16.4-7.3,32.9-12.9,48.7c-4.6,12.9-11.2,26.7-22.9,34.6c-8.8,5.9-21.2,7.6-30.9,2.7c-12.4-6.3-12.1-20.5-6.2-31.4
				c3.6-6.6,8.5-12.6,14-17.7c2.4-2.2,4.7-3.9,8-3c3.5,0.9,6.7,3.8,9.5,5.9c11,8.5,23.5,13,37.5,12.7c30.1-0.7,54.1-19.8,70.9-43.4
				c4.5-6.3,8.5-12.9,12.3-19.5c1.8-3.1,3.5-6.3,5.2-9.4c1.7-3.2,4.8-7.3,5.6-10.9c1.5-6.5-5.1-10.8-10.8-10.7
				c-6.4,0.1-11.5,4.2-16.2,8c-11.2,9.1-19.8,21.4-26.7,34c-6.5,11.9-13.1,24.8-17,37.8c-3.4,11.2-4.7,25.4,3.8,34.8
				c9.6,10.5,24.9,8.4,35.6,0.8c24.3-17.3,30.7-51.5,33.2-79.2c0.7-7.6,1.1-15.2,1.5-22.9c0.3-6.6-10.8-8.4-11.8-1.6
				c-4.1,28.1-3.6,56.3,1.7,84.1c0.9,5,8.7,5.9,11,1.4c5.2-10.3,10.4-20.6,15.5-30.9c-3.5,0-6.9,0-10.4,0
				c5.7,11.5,13.3,23.4,27.3,24.4c5.8,0.4,11.7-1.6,15.7-6c1.8-2,3.1-4.4,4.6-6.6c0.6-0.8,1.2-2.2,2.2-2.7c-0.6,0.3-1.6,0.1,0.2,0.5
				c1.3,0.3,2.6,0.7,3.8,1c8,2.2,16,4.4,24,6.6c7.5,2,15.6,5.4,23.4,5.7c15.2,0.7,19.5-16.2,24.2-27.4c7.3-17.4,14.6-34.8,21.9-52.2
				c-3.9-1.1-7.7-2.1-11.6-3.2c-6.5,16.9-9.5,37.6-4.8,55.4c2,7.6,6.8,14.6,14.6,16.9c7.7,2.3,15.9-0.5,22.5-4.5
				c7.4-4.5,13.6-10.7,19.8-16.7c6.7-6.5,13-13.2,19.1-20.2c12.1-14,23-29,32.7-44.7c-3.7-1.5-7.3-3.1-11-4.6
				c-9.8,44.1-28.6,85.9-55.2,122.4c-12.6,17.3-27,34.3-44.7,46.6c-8.7,6-18.2,10.9-28.6,13.3c-5,1.2-10.2,1.6-15.3,1.4
				c-2.2-0.1-11.4-0.5-11.9-4c-0.2-1.6,9.3-7.2,10.9-8.1c4.7-2.9,9.8-5.3,15-7.3c10.1-3.8,20.6-6.1,31.2-7.8
				c24.1-3.9,48.7-5.7,73.1-7.7c51.4-4.2,103.1-7.3,154-15.9c52-8.8,103.5-23.7,149.5-50.2c6.7-3.9,0.7-14.2-6.1-10.4
				c-93.6,54-204.5,56.4-309.3,65.4c-25.2,2.2-50.9,3.9-75.6,9.2c-11.4,2.5-22.7,6-33.1,11.5c-8,4.2-22.1,11.5-21.5,22.1
				c0.6,10.9,13.4,14.3,22.2,15c11.1,0.9,22.4-1.5,32.6-5.8c21.3-8.9,38.8-25.2,53.4-42.7c34.7-41.4,59.2-91,70.9-143.7
				c1.5-6.6-7.3-10.6-11-4.6c-16,26.1-35.5,49.8-58.2,70.3c-4.9,4.5-10.8,9.5-17.7,10.6c-7.2,1.2-10.2-4.8-11.4-10.9
				c-3.1-15.5-0.4-32.3,5.2-46.9c2.8-7.3-8.7-10.2-11.6-3.2c-7,16.8-14.1,33.6-21.1,50.4c-1.7,4.1-3.4,8.3-5.2,12.5
				c-1.1,2.6-2.5,6.3-5.2,7.6c-3.1,1.4-7.7-0.7-10.7-1.5c-4.5-1.2-9-2.4-13.4-3.7c-8.6-2.4-17.3-4.7-25.9-7.1
				c-4.1-1.1-6.9-1.7-10.7,0.6c-2.6,1.7-4.5,4.3-6.2,6.8c-1.5,2.3-2.7,5.2-5.5,6.3c-2.7,1.1-6.2,0.3-8.7-1
				c-6.4-3.3-9.7-11-12.7-17.1c-1.9-3.9-8.4-3.9-10.4,0c-5.2,10.3-10.4,20.6-15.5,30.9c3.7,0.5,7.3,1,11,1.4
				c-4.9-25.6-5.5-52-1.7-77.7c-3.9-0.5-7.9-1.1-11.8-1.6c-0.9,16.9-1.8,33.9-5.9,50.3c-3.7,15.2-10.5,33.4-24.2,42.3
				c-5.6,3.7-13.5,6.4-19,1.1c-4.3-4.2-4.2-11.1-3.3-16.6c2.4-14.7,10.4-29.3,17.5-42.3c4.4-8,9.3-15.7,15.4-22.5
				c3.1-3.4,6.4-6.7,10-9.5c1.5-1.1,3-2.5,4.7-3.3c0.4-0.2,1.4-0.3,1.7-0.6c1.4-1.2,0.8,2.1-0.1-1.4c0.2-1.5,0.4-3.1,0.6-4.6
				c-17.7,33.7-41.4,76.6-85.3,75.9c-9.3-0.1-18.1-2.8-25.6-8.3c-7.5-5.4-15.3-12.8-25.4-10.1c-9,2.3-16.1,11.8-21.3,18.9
				c-5.8,7.9-10.3,17.4-10.7,27.4c-0.6,17.7,13.3,30.1,30,32.1c17.9,2.2,33.5-6.9,43.9-21c12.4-16.7,17.9-38.3,22.8-58.1
				c5.6-22.7,9.1-45.9,11.2-69.2c4.8-52.8,2.2-105.9-0.5-158.7c-0.4-7.9-11.1-7.5-12,0c-6.5,54.5-60,84.7-104,107
				C41.1,143.8,47.2,154.1,54,150.6L54,150.6z"/>
		</g>
	</g>
	<g>
		<g>
			<path class="st0" d="M558.2,139.5c23.6-21.8,43.2-47.7,57.7-76.4c-3.7-1-7.5-2-11.2-3c0.6,51.6,1.2,103.5-4.8,154.8
				c-2.6,22.3-5.6,46-17.5,65.5c-2.5,4.1-5.8,9.4-10.6,11c-4.6,1.5-9.2-1.3-11.8-5c-6.6-9-2.2-22.1,1.2-31.4
				c8-22,22.9-41.6,41.9-55.3c6.2-4.5,0.2-14.9-6.1-10.4c-19.7,14.3-35.3,33.4-44.8,55.8c-4.9,11.5-9.3,24.7-6.8,37.3
				c2.2,10.9,11.3,20.8,22.9,21.3c12.4,0.6,20.7-10.6,26.1-20.3c6.3-11.4,10.1-23.9,12.6-36.6c5.6-28.1,7.7-57.2,8.9-85.8
				c1.4-33.7,1.1-67.4,0.7-101.1c-0.1-5.7-8.4-8.5-11.2-3c-14.1,27.8-33,52.8-55.9,73.9C544.1,136.3,552.6,144.7,558.2,139.5
				L558.2,139.5z"/>
		</g>
	</g>
	<g>
		<g>
			<path class="st0" d="M643.2,178.5c2.9,35.1,0.7,70.3-6.7,104.7c-1.6,7.5,9.8,10.7,11.6,3.2c6.2-27,31.4-42.6,50.6-60.1
				c10-9.1,19.7-19.5,25.8-31.8c4.8-9.7,10.7-26.8,3.4-36.7c-9.4-12.8-25.9,3.5-32.4,11.4c-8.4,10.3-14,22.4-18.1,35
				c-6.6,20.7-13.9,57.7,15.4,64.7c33.3,8,55-33.3,59.9-60c1.4-7.6-10.2-10.8-11.6-3.2c-2.2,12-6.6,23.3-13.4,33.5
				c-6.1,9-15,18.3-26.6,18.6c-25.6,0.7-17.2-33.5-12.8-48.2c3.1-10.2,7.3-20.2,13.4-29c3-4.3,6.6-8.2,10.6-11.5
				c0.8-0.7,5.2-4.5,6.1-3.7c1.4,1.2,0.3,7.2,0.1,8.7c-2.9,22-21.9,38.5-37.9,51.9c-18.5,15.6-38.5,32.5-44.2,57.1
				c3.9,1.1,7.7,2.1,11.6,3.2c7.6-35.4,10-71.8,7.1-107.9C654.5,170.8,642.5,170.8,643.2,178.5L643.2,178.5z"/>
		</g>
	</g>
	<g>
		<g>
			<path class="st0" d="M641.8,144.7c5.9,10,16.7,16,28.3,15.8c7.7-0.2,7.7-12.2,0-12c-7.5,0.2-14.1-3.4-18-9.8
				C648.2,132,637.8,138.1,641.8,144.7L641.8,144.7z"/>
		</g>
	</g>
</g>
<g id="圖層_2">
</g>
</svg>
